<svg width="42" height="44" viewBox="0 0 42 44" fill="none" xmlns="http://www.w3.org/2000/svg">
<path d="M21 5.0625C30.8896 5.0625 38.9375 13.1104 38.9375 23C38.9375 32.8896 30.8896 40.9375 21 40.9375C11.1104 40.9375 3.0625 32.8896 3.0625 23C3.0625 13.1104 11.1104 5.0625 21 5.0625ZM21 2.5C9.67896 2.5 0.5 11.679 0.5 23C0.5 34.321 9.67896 43.5 21 43.5C32.321 43.5 41.5 34.321 41.5 23C41.5 11.679 32.321 2.5 21 2.5ZM32.4287 29.8542L32.3135 29.5039C32.0433 28.6981 31.1524 27.8573 30.3316 27.632L27.3012 26.8037C26.4804 26.581 25.3092 26.8813 24.7063 27.4844L23.6101 28.5805C19.6263 27.5019 16.5007 24.3764 15.4246 20.3925L16.5208 19.2964C17.1213 18.6958 17.4216 17.5247 17.1989 16.7014L16.373 13.6709C16.1503 12.8501 15.3044 11.9592 14.4987 11.689L14.1533 11.5738C13.345 11.3035 12.1914 11.5763 11.5908 12.1794L9.94922 13.821C9.65645 14.1113 9.46875 14.9446 9.46875 14.9472C9.41366 20.1573 11.4557 25.1747 15.1393 28.8608C18.8129 32.5343 23.8128 34.5739 29.0053 34.5288C29.0329 34.5288 29.8912 34.3461 30.184 34.0533L31.8256 32.4117C32.4262 31.8136 32.6964 30.66 32.4287 29.8542Z" fill="#E3010F"/>
</svg>
