<svg width="43" height="45" viewBox="0 0 43 45" fill="none" xmlns="http://www.w3.org/2000/svg">
<path d="M35.7856 30.9389C35.6111 30.8798 35.4267 30.8559 35.2429 30.8685C35.0591 30.8811 34.8796 30.93 34.7148 31.0124C34.55 31.0948 34.4032 31.2091 34.2829 31.3485C34.1625 31.488 34.071 31.65 34.0136 31.825C33.9562 32.0001 33.9341 32.1848 33.9485 32.3684C33.9629 32.5521 34.0136 32.7311 34.0976 32.895C34.1817 33.059 34.2973 33.2047 34.438 33.3236C34.5787 33.4426 34.7415 33.5325 34.9171 33.5882C38.1061 34.6337 39.5335 35.8821 39.5335 36.654C39.5335 38.5967 32.3052 41.5332 21.4108 41.5332C10.5164 41.5332 3.28811 38.5967 3.28811 36.654C3.28811 35.8821 4.71552 34.6337 7.90454 33.5882C8.08016 33.5325 8.243 33.4426 8.38366 33.3236C8.52431 33.2047 8.63999 33.059 8.72401 32.895C8.80802 32.7311 8.8587 32.5521 8.87313 32.3684C8.88755 32.1848 8.86543 32.0001 8.80804 31.825C8.75065 31.65 8.65913 31.488 8.53878 31.3485C8.41842 31.2091 8.27161 31.0948 8.10684 31.0124C7.94206 30.93 7.76259 30.8811 7.5788 30.8685C7.395 30.8559 7.21053 30.8798 7.03605 30.9389C1.63403 32.7101 0.5 35.0244 0.5 36.654C0.5 41.687 11.0194 44.3213 21.4108 44.3213C31.8022 44.3213 42.3216 41.687 42.3216 36.654C42.3216 35.0244 41.1876 32.7101 35.7856 30.9389Z" fill="#E3010F"/>
<path d="M20.5407 38.4405C20.7879 38.6379 21.0949 38.7454 21.4113 38.7454C21.7276 38.7454 22.0346 38.6379 22.2818 38.4405C22.7917 38.032 34.7541 28.3186 34.7541 15.8429C34.7541 12.3041 33.3484 8.91032 30.8461 6.40804C28.3438 3.90576 24.95 2.5 21.4112 2.5C17.8725 2.5 14.4787 3.90576 11.9764 6.40804C9.47412 8.91032 8.06836 12.3041 8.06836 15.8429C8.06839 28.3186 20.0308 38.0321 20.5407 38.4405ZM16.6316 15.8429C16.6317 14.8976 16.912 13.9735 17.4373 13.1875C17.9625 12.4015 18.709 11.789 19.5823 11.4272C20.4557 11.0655 21.4167 10.9709 22.3439 11.1553C23.271 11.3398 24.1226 11.795 24.7911 12.4635C25.4595 13.1319 25.9147 13.9836 26.0991 14.9107C26.2835 15.8379 26.1888 16.7989 25.8271 17.6722C25.4653 18.5456 24.8527 19.2921 24.0667 19.8172C23.2807 20.3424 22.3566 20.6227 21.4113 20.6227C20.1436 20.6227 18.9279 20.1191 18.0315 19.2227C17.1352 18.3263 16.6316 17.1106 16.6316 15.8429V15.8429Z" fill="#E3010F"/>
</svg>
