<?xml version="1.0" encoding="utf-8"?>
<!-- Generator: Adobe Illustrator 24.1.0, SVG Export Plug-In . SVG Version: 6.00 Build 0)  -->
<svg version="1.1" id="Слой_1" xmlns="http://www.w3.org/2000/svg" xmlns:xlink="http://www.w3.org/1999/xlink" x="0px" y="0px"
	 width="195px" height="65px" viewBox="0 0 195 65" style="enable-background:new 0 0 195 65;" xml:space="preserve">
<style type="text/css">
	.st0{fill-rule:evenodd;clip-rule:evenodd;fill:#E3010F;}
	.st1{fill:#E3010F;}
</style>
<path class="st0" d="M134.6,60.6V6.7h32.6v53.9H134.6z M139.1,56.2V11.1h23.6v45.1H139.1z"/>
<path class="st0" d="M134.6,60.6c2.6-7.4,5.2-14.8,7.7-22.2c2.6-7.4,5.2-14.9,7.8-22.4l16.5,0l16.4,0c-2.7,7.5-5.3,14.9-7.9,22.4
	l-7.9,22.2L134.6,60.6L134.6,60.6z M140.4,57c2.2-6.2,4.3-12.4,6.5-18.6s4.3-12.5,6.5-18.7l11.9,0l11.9,0
	c-2.2,6.3-4.4,12.5-6.6,18.7c-2.2,6.2-4.4,12.4-6.6,18.6L140.4,57L140.4,57z"/>
<path class="st0" d="M134.6,60.6l11.3-15.2l11.1-15l16.2-0.3l16.5-0.3c-3.7,5.1-7.4,10.2-11.1,15.3l-11.3,15.5H134.6z M140.9,58.1
	l9.4-12.7l9.3-12.6l11.7-0.2l11.9-0.2c-3.1,4.2-6.2,8.5-9.3,12.8l-9.4,12.9h-11.9L140.9,58.1L140.9,58.1z"/>
<path class="st0" d="M134.6,60.6l7.4-4.8c2.4-1.6,4.9-3.1,7.3-4.7l7.1-4.6l7-4.6H195c-2.3,1.5-4.5,3-6.8,4.6l-6.9,4.6l-7,4.7
	l-7.1,4.8H134.6z M141.5,59l6.1-4l6.1-3.9l6-3.9l5.9-3.8h22.9l-5.7,3.8l-5.8,3.8l-5.9,3.9l-6,4H141.5L141.5,59z"/>
<path class="st1" d="M9.6,16.6h7.1v11.9c-1.1,0.4-2.2,0.7-3.3,1s-2.3,0.3-3.5,0.3c-1.9,0-3.5-0.5-4.7-1.4C4,27.4,3,26,2.4,24.3
	c-0.6-1.8-1-3.8-1-6.3c0-2.4,0.4-4.5,1.1-6.2C3.2,10,4.3,8.7,5.7,7.7c1.4-1,3.1-1.4,5.1-1.4c1.1,0,2.1,0.1,3.1,0.4
	c1,0.3,1.8,0.6,2.6,1l-1.3,3.6c-0.7-0.4-1.3-0.7-2-1s-1.4-0.3-2.2-0.3c-1.1,0-2,0.3-2.8,0.9c-0.7,0.6-1.3,1.5-1.7,2.7
	C6.2,14.9,6,16.4,6,18.1c0,1.6,0.2,3,0.5,4.2c0.3,1.2,0.8,2.1,1.4,2.7c0.6,0.6,1.4,1,2.4,1c0.4,0,0.8,0,1.2-0.1
	c0.4-0.1,0.7-0.2,1.1-0.3v-5.3H9.6V16.6z M34.6,29.5H24.3V6.6h10.3v3.7h-5.9v5.4h5.5v3.7h-5.5v6.2h5.9V29.5z M47.1,6.6
	c1.7,0,3.1,0.2,4.2,0.7c1.1,0.5,1.9,1.2,2.5,2.2c0.5,1,0.8,2.2,0.8,3.7c0,0.9-0.1,1.8-0.3,2.6c-0.2,0.8-0.6,1.4-1.1,2
	c-0.5,0.6-1.1,1.1-1.9,1.6l4.7,10h-4.8l-3.7-9h-1.3v9h-4.4V6.6H47.1z M47.1,10.3h-0.9V17h1c1,0,1.7-0.3,2.2-0.9
	c0.5-0.6,0.8-1.5,0.8-2.7c0-1.1-0.3-1.9-0.8-2.4C48.9,10.6,48.2,10.3,47.1,10.3z M70.6,29.5l-4.5-16.9H66c0.1,0.7,0.1,1.4,0.1,2
	c0,0.6,0.1,1.2,0.1,1.7c0,0.5,0,1,0,1.4v11.8h-4.1V6.6h6l4.2,15.6h0.1l4.2-15.6h6v22.8h-4.2V17.7c0-0.5,0-1,0-1.5
	c0-0.5,0-1.1,0.1-1.7c0-0.6,0.1-1.2,0.1-1.9h-0.1L74,29.5H70.6z M100.7,29.5L99.6,24h-5.1l-1.2,5.5h-4.7l5.5-22.8h5.7l5.6,22.8
	H100.7z M98.9,20.2l-1.2-6c-0.1-0.5-0.2-1-0.2-1.5c-0.1-0.5-0.2-0.9-0.2-1.4c-0.1-0.4-0.1-0.9-0.2-1.2c0,0.4-0.1,0.8-0.1,1.2
	s-0.1,0.9-0.2,1.4c-0.1,0.5-0.2,1-0.3,1.5l-1.2,6.1H98.9z M127.1,29.5H122l-6.7-15.9h-0.1c0.1,0.7,0.1,1.4,0.1,2.1
	c0,0.7,0.1,1.2,0.1,1.8c0,0.5,0,1,0,1.5v10.6h-4.1V6.6h5.1l6.7,15.6h0.1c0-0.7-0.1-1.4-0.1-2c0-0.6-0.1-1.2-0.1-1.7c0-0.5,0-1,0-1.5
	V6.6h4.1V29.5z M13.1,52.8c0,1.4-0.3,2.6-0.8,3.6c-0.6,1.1-1.3,1.9-2.3,2.5c-1,0.6-2.2,0.9-3.6,0.9c-0.6,0-1.3,0-1.8-0.1
	s-1.2-0.2-1.8-0.4c-0.6-0.2-1.1-0.4-1.7-0.7v-4.5c0.8,0.5,1.7,1,2.6,1.2c0.9,0.3,1.7,0.4,2.5,0.4c0.6,0,1-0.1,1.4-0.3
	c0.4-0.2,0.6-0.5,0.8-0.9c0.2-0.4,0.3-0.8,0.3-1.3c0-0.5-0.1-0.9-0.2-1.3c-0.2-0.4-0.5-0.8-0.9-1.1c-0.4-0.4-1.1-0.8-1.9-1.3
	c-0.7-0.4-1.3-0.8-1.8-1.2c-0.5-0.4-1-0.9-1.4-1.4c-0.4-0.5-0.7-1.1-0.9-1.8c-0.2-0.7-0.3-1.5-0.3-2.4c0-1.3,0.2-2.4,0.8-3.4
	s1.3-1.7,2.2-2.3c1-0.5,2.1-0.8,3.5-0.8c0.9,0,1.8,0.1,2.7,0.4s1.7,0.6,2.6,1.1l-1.2,3.9c-0.7-0.4-1.4-0.8-2.1-1
	c-0.7-0.2-1.3-0.3-1.8-0.3c-0.5,0-0.9,0.1-1.3,0.3C6.3,40.8,6,41,5.9,41.4c-0.2,0.3-0.3,0.7-0.3,1.1c0,0.5,0.1,1,0.3,1.4
	C6,44.3,6.3,44.6,6.8,45c0.5,0.4,1.1,0.8,2,1.3c0.9,0.6,1.7,1.1,2.4,1.8c0.6,0.6,1.1,1.3,1.4,2.1C13,50.9,13.1,51.8,13.1,52.8z
	 M22.5,59.5h-4.3v-19h-4.3v-3.8h12.8v3.8h-4.2V59.5z M38.7,59.5L37.5,54h-5.1l-1.2,5.5h-4.7l5.5-22.8h5.7l5.6,22.8H38.7z M36.9,50.2
	l-1.2-6c-0.1-0.5-0.2-1-0.2-1.5c-0.1-0.5-0.2-0.9-0.2-1.4C35.1,40.8,35,40.4,35,40c0,0.4-0.1,0.8-0.1,1.2s-0.1,0.9-0.2,1.4
	c-0.1,0.5-0.2,1-0.3,1.5l-1.2,6.1H36.9z M60.6,59.5h-5.2l-6.7-15.9h-0.1c0.1,0.7,0.1,1.4,0.1,2.1c0,0.7,0.1,1.2,0.1,1.8
	c0,0.5,0,1,0,1.5v10.6h-4.1V36.6h5.1l6.7,15.6h0.1c0-0.7-0.1-1.4-0.1-2c0-0.6-0.1-1.2-0.1-1.7c0-0.5,0-1,0-1.5V36.6h4.1V59.5z
	 M78.6,47.6c0,2.6-0.4,4.7-1.1,6.5c-0.7,1.8-1.7,3.1-3.1,4c-1.3,0.9-3,1.4-5,1.4h-5.4V36.6h5.7c1.9,0,3.5,0.4,4.8,1.3
	c1.3,0.8,2.3,2.1,3,3.7C78.2,43.2,78.6,45.3,78.6,47.6z M74,47.8c0-1.7-0.2-3.1-0.5-4.2c-0.3-1.1-0.8-1.9-1.4-2.4
	c-0.6-0.5-1.4-0.8-2.4-0.8h-1.3v15.2h1c1.6,0,2.7-0.6,3.5-1.9C73.7,52.4,74,50.5,74,47.8z M91.5,59.5L90.3,54h-5.1L84,59.5h-4.7
	l5.5-22.8h5.7l5.6,22.8H91.5z M89.6,50.2l-1.2-6c-0.1-0.5-0.2-1-0.2-1.5c-0.1-0.5-0.2-0.9-0.2-1.4c-0.1-0.4-0.1-0.9-0.2-1.2
	c0,0.4-0.1,0.8-0.1,1.2s-0.1,0.9-0.2,1.4c-0.1,0.5-0.2,1-0.3,1.5l-1.2,6.1H89.6z M102.9,36.6c1.7,0,3.1,0.2,4.2,0.7
	c1.1,0.5,1.9,1.2,2.5,2.2c0.5,1,0.8,2.2,0.8,3.7c0,0.9-0.1,1.8-0.3,2.6c-0.2,0.8-0.6,1.4-1.1,2c-0.5,0.6-1.1,1.1-1.9,1.6l4.7,10H107
	l-3.7-9H102v9h-4.4V36.6H102.9z M102.8,40.3H102V47h1c1,0,1.7-0.3,2.2-0.9c0.5-0.6,0.8-1.5,0.8-2.7c0-1.1-0.3-1.9-0.8-2.4
	C104.7,40.6,103.9,40.3,102.8,40.3z M127.8,47.6c0,2.6-0.4,4.7-1.1,6.5c-0.7,1.8-1.7,3.1-3.1,4c-1.3,0.9-3,1.4-5,1.4h-5.4V36.6h5.7
	c1.9,0,3.5,0.4,4.8,1.3c1.3,0.8,2.3,2.1,3,3.7C127.5,43.2,127.8,45.3,127.8,47.6z M123.3,47.8c0-1.7-0.2-3.1-0.5-4.2
	c-0.3-1.1-0.8-1.9-1.4-2.4c-0.6-0.5-1.4-0.8-2.4-0.8h-1.3v15.2h1c1.6,0,2.7-0.6,3.5-1.9C122.9,52.4,123.3,50.5,123.3,47.8z"/>
</svg>
