<svg width="42" height="45" viewBox="0 0 42 45" fill="none" xmlns="http://www.w3.org/2000/svg">
<path d="M35.2856 31.0583C35.1111 30.9992 34.9267 30.9753 34.7429 30.9879C34.5591 31.0005 34.3796 31.0494 34.2148 31.1318C34.05 31.2142 33.9032 31.3284 33.7829 31.4679C33.6625 31.6074 33.571 31.7693 33.5136 31.9444C33.4562 32.1195 33.4341 32.3042 33.4485 32.4878C33.4629 32.6715 33.5136 32.8505 33.5976 33.0144C33.6817 33.1784 33.7973 33.324 33.938 33.443C34.0787 33.562 34.2415 33.6519 34.4171 33.7076C37.6061 34.7531 39.0335 36.0015 39.0335 36.7734C39.0335 38.7161 31.8052 41.6526 20.9108 41.6526C10.0164 41.6526 2.78811 38.7161 2.78811 36.7734C2.78811 36.0015 4.21552 34.7531 7.40454 33.7076C7.58016 33.6519 7.743 33.562 7.88366 33.443C8.02431 33.324 8.13999 33.1784 8.22401 33.0144C8.30802 32.8505 8.3587 32.6715 8.37313 32.4878C8.38755 32.3042 8.36543 32.1195 8.30804 31.9444C8.25065 31.7693 8.15913 31.6074 8.03878 31.4679C7.91842 31.3284 7.77161 31.2142 7.60684 31.1318C7.44206 31.0494 7.26259 31.0005 7.0788 30.9879C6.895 30.9753 6.71053 30.9992 6.53605 31.0583C1.13403 32.8295 0 35.1438 0 36.7734C0 41.8064 10.5194 44.4407 20.9108 44.4407C31.3022 44.4407 41.8216 41.8064 41.8216 36.7734C41.8216 35.1438 40.6876 32.8295 35.2856 31.0583Z" fill="#E3010F"/>
<path d="M20.0407 38.5594C20.2879 38.7568 20.5949 38.8643 20.9113 38.8643C21.2276 38.8643 21.5346 38.7568 21.7818 38.5594C22.2917 38.1509 34.2541 28.4375 34.2541 15.9618C34.2541 12.423 32.8484 9.02921 30.3461 6.52694C27.8438 4.02466 24.45 2.6189 20.9112 2.6189C17.3725 2.6189 13.9787 4.02466 11.4764 6.52694C8.97412 9.02921 7.56836 12.423 7.56836 15.9618C7.56839 28.4375 19.5308 38.151 20.0407 38.5594ZM16.1316 15.9618C16.1317 15.0165 16.412 14.0924 16.9373 13.3064C17.4625 12.5204 18.209 11.9079 19.0823 11.5461C19.9557 11.1844 20.9167 11.0898 21.8439 11.2742C22.771 11.4587 23.6226 11.9139 24.2911 12.5824C24.9595 13.2508 25.4147 14.1025 25.5991 15.0296C25.7835 15.9568 25.6888 16.9178 25.3271 17.7911C24.9653 18.6645 24.3527 19.411 23.5667 19.9361C22.7807 20.4613 21.8566 20.7416 20.9113 20.7416C19.6436 20.7416 18.4279 20.238 17.5315 19.3416C16.6352 18.4452 16.1316 17.2295 16.1316 15.9618V15.9618Z" fill="#E3010F"/>
</svg>
