<svg width="44" height="27" viewBox="0 0 44 27" fill="none" xmlns="http://www.w3.org/2000/svg">
<g clip-path="url(#clip0_280_59)">
<path d="M42.8754 3.04759H34.75L24.7326 -0.220631C24.1311 -0.417461 23.4932 -0.477711 22.8655 -0.396997C22.2377 -0.316283 21.6358 -0.0966352 21.1037 0.245964L15.0677 4.12364C15.0026 4.16541 14.9464 4.2196 14.9022 4.28311C14.858 4.34662 14.8268 4.41821 14.8103 4.4938C14.7937 4.56938 14.7923 4.64748 14.806 4.72363C14.8196 4.79978 14.8482 4.87249 14.8899 4.93761C14.9317 5.00273 14.9859 5.05898 15.0494 5.10316C15.1129 5.14734 15.1845 5.17858 15.2601 5.19509C15.3357 5.2116 15.4138 5.21306 15.4899 5.19939C15.5661 5.18572 15.6388 5.15718 15.7039 5.11541L21.7398 1.24287C22.1253 0.995327 22.5612 0.836969 23.0156 0.77936C23.4701 0.721751 23.9317 0.766345 24.3667 0.909886L34.4766 4.19866C34.5353 4.21796 34.5968 4.22767 34.6586 4.22744H42.2875V14.1256H37.9042C37.7962 14.1258 37.6903 14.1555 37.598 14.2117C37.5058 14.2679 37.4307 14.3483 37.3811 14.4442C36.7208 15.561 35.7124 16.4304 34.5106 16.919V14.2705C35.4551 13.8677 36.4633 13.1667 37.1066 11.9448C37.1429 11.8762 37.1653 11.8012 37.1725 11.724C37.1797 11.6467 37.1717 11.5689 37.1488 11.4948C37.126 11.4207 37.0888 11.3518 37.0393 11.2921C36.9898 11.2323 36.9291 11.183 36.8605 11.1467C36.7919 11.1105 36.7169 11.0881 36.6397 11.0809C36.5625 11.0736 36.4846 11.0817 36.4105 11.1045C36.3364 11.1274 36.2675 11.1646 36.2078 11.2141C36.1481 11.2635 36.0987 11.3243 36.0625 11.3929C34.9422 13.5347 32.157 13.6303 32.1416 13.6303C28.4109 13.6303 27.3338 11.026 27.2907 10.918C27.2479 10.8069 27.1725 10.7112 27.0744 10.6437C26.9762 10.5762 26.86 10.54 26.7408 10.5398H21.2044C20.9944 10.5452 20.7855 10.5085 20.59 10.4318C20.3945 10.3552 20.2163 10.2402 20.0659 10.0936C19.9155 9.94702 19.796 9.7718 19.7143 9.57829C19.6327 9.38478 19.5907 9.17689 19.5907 8.96687C19.5907 8.75686 19.6327 8.54897 19.7143 8.35546C19.796 8.16194 19.9155 7.98673 20.0659 7.84013C20.2163 7.69354 20.3945 7.57853 20.59 7.5019C20.7855 7.42526 20.9944 7.38855 21.2044 7.39391H27.8128C27.8922 7.39723 27.9716 7.38445 28.046 7.35632C28.1204 7.3282 28.1883 7.28532 28.2457 7.23026C28.3031 7.1752 28.3488 7.1091 28.38 7.03593C28.4112 6.96277 28.4273 6.88405 28.4273 6.8045C28.4273 6.72496 28.4112 6.64624 28.38 6.57307C28.3488 6.49991 28.3031 6.43381 28.2457 6.37875C28.1883 6.32369 28.1204 6.28081 28.046 6.25268C27.9716 6.22456 27.8922 6.21177 27.8128 6.21509H21.2044C20.8385 6.20802 20.475 6.27397 20.1349 6.40909C19.7949 6.5442 19.4852 6.74577 19.2239 7.00199C18.9627 7.25822 18.7552 7.56397 18.6135 7.90134C18.4719 8.23872 18.3989 8.60096 18.3989 8.96687C18.3989 9.33278 18.4719 9.69502 18.6135 10.0324C18.7552 10.3698 18.9627 10.6755 19.2239 10.9318C19.4852 11.188 19.7949 11.3895 20.1349 11.5247C20.475 11.6598 20.8385 11.7257 21.2044 11.7187H26.3719C26.8642 12.622 28.4407 14.8091 32.1539 14.8091C32.5508 14.7915 32.9451 14.7368 33.3317 14.6457V23.3815C33.3315 23.612 33.2398 23.833 33.0768 23.996C32.9138 24.159 32.6928 24.2507 32.4623 24.2509H2.04829C1.81804 24.2507 1.59724 24.1593 1.43414 23.9968C1.27104 23.8342 1.17888 23.6138 1.17779 23.3835V8.26338C1.17806 8.03287 1.26976 7.81187 1.43276 7.64888C1.59575 7.48588 1.81675 7.39418 2.04726 7.39391H17.0759C17.1554 7.39723 17.2347 7.38445 17.3091 7.35632C17.3835 7.3282 17.4515 7.28532 17.5089 7.23026C17.5663 7.1752 17.612 7.1091 17.6432 7.03593C17.6744 6.96277 17.6905 6.88405 17.6905 6.8045C17.6905 6.72496 17.6744 6.64624 17.6432 6.57307C17.612 6.49991 17.5663 6.43381 17.5089 6.37875C17.4515 6.32369 17.3835 6.28081 17.3091 6.25268C17.2347 6.22456 17.1554 6.21177 17.0759 6.21509H2.04829C1.50563 6.21699 0.985744 6.4334 0.602025 6.81712C0.218306 7.20084 0.001896 7.72073 0 8.26338V23.3835C0.001896 23.9262 0.218306 24.4461 0.602025 24.8298C0.985744 25.2135 1.50563 25.4299 2.04829 25.4318H32.4623C33.0049 25.4299 33.5248 25.2135 33.9085 24.8298C34.2923 24.4461 34.5087 23.9262 34.5106 23.3835V18.1677C36.6236 17.4946 37.8065 15.9704 38.2382 15.3034H42.8754C43.0316 15.3034 43.1815 15.2414 43.2921 15.131C43.4027 15.0206 43.465 14.8708 43.4653 14.7145V3.63751C43.4653 3.48106 43.4031 3.33101 43.2925 3.22037C43.1819 3.10974 43.0318 3.04759 42.8754 3.04759Z" fill="#E3010F"/>
<path d="M3.99698 18.9292V12.7165C4.61704 12.5973 5.18712 12.295 5.6336 11.8485C6.08007 11.402 6.38242 10.832 6.50158 10.2119H16.5663C16.7183 10.2056 16.8621 10.1407 16.9674 10.0308C17.0728 9.92099 17.1316 9.77469 17.1316 9.62249C17.1316 9.4703 17.0728 9.32399 16.9674 9.21415C16.8621 9.10431 16.7183 9.03943 16.5663 9.03308H5.96819C5.81173 9.03308 5.66168 9.09523 5.55105 9.20587C5.44041 9.3165 5.37826 9.46655 5.37826 9.623C5.37867 9.88209 5.32802 10.1387 5.22922 10.3782C5.13041 10.6177 4.98539 10.8354 4.80242 11.0189C4.61946 11.2023 4.40215 11.3479 4.1629 11.4473C3.92366 11.5467 3.66716 11.5981 3.40808 11.5983C3.25322 11.5994 3.10499 11.6613 2.99539 11.7707C2.88579 11.8801 2.82361 12.0283 2.82227 12.1831V19.4636C2.82227 19.5411 2.83753 19.6177 2.86719 19.6892C2.89685 19.7608 2.94032 19.8257 2.99511 19.8804C3.04991 19.9351 3.11495 19.9785 3.18651 20.008C3.25808 20.0375 3.33477 20.0527 3.41219 20.0525C3.93464 20.0534 4.43545 20.2613 4.80478 20.6309C5.17411 21.0004 5.38183 21.5013 5.38237 22.0237C5.38237 22.1012 5.39764 22.1778 5.4273 22.2493C5.45696 22.3209 5.50043 22.3858 5.55522 22.4405C5.61001 22.4952 5.67505 22.5386 5.74662 22.5681C5.81819 22.5976 5.89488 22.6128 5.9723 22.6126H28.5425C28.62 22.6128 28.6967 22.5976 28.7682 22.5681C28.8398 22.5386 28.9048 22.4952 28.9596 22.4405C29.0144 22.3858 29.0579 22.3209 29.0875 22.2493C29.1172 22.1778 29.1325 22.1012 29.1325 22.0237C29.133 21.5013 29.3407 21.0004 29.7101 20.6309C30.0794 20.2613 30.5802 20.0534 31.1027 20.0525C31.1801 20.0527 31.2568 20.0375 31.3283 20.008C31.3999 19.9785 31.4649 19.9351 31.5197 19.8804C31.5745 19.8257 31.618 19.7608 31.6477 19.6892C31.6773 19.6177 31.6926 19.5411 31.6926 19.4636V16.7997C31.6959 16.7203 31.6831 16.6409 31.655 16.5665C31.6269 16.4921 31.584 16.4242 31.5289 16.3668C31.4739 16.3094 31.4078 16.2637 31.3346 16.2325C31.2614 16.2013 31.1827 16.1852 31.1032 16.1852C31.0236 16.1852 30.9449 16.2013 30.8717 16.2325C30.7986 16.2637 30.7325 16.3094 30.6774 16.3668C30.6224 16.4242 30.5795 16.4921 30.5514 16.5665C30.5232 16.6409 30.5104 16.7203 30.5138 16.7997V18.9292C29.8938 19.0486 29.3239 19.3511 28.8774 19.7975C28.431 20.2439 28.1286 20.8139 28.0092 21.4338H6.50158C6.38215 20.8139 6.07972 20.2439 5.63329 19.7975C5.18686 19.3511 4.61692 19.0486 3.99698 18.9292Z" fill="#E3010F"/>
<path d="M17.6693 16.8906C19.0776 16.8906 20.0624 15.9086 20.0624 14.497C20.0624 13.0854 19.0776 12.1342 17.6693 12.1342H14.9664C14.8568 12.1342 14.7679 12.2229 14.7679 12.3323V15.7449H13.9075C13.7979 15.7449 13.709 15.8337 13.709 15.9431V16.6924C13.709 16.8019 13.7979 16.8906 13.9075 16.8906H14.7679V17.4191H13.9075C13.7979 17.4191 13.709 17.5078 13.709 17.6173V18.2779C13.709 18.3873 13.7979 18.4761 13.9075 18.4761H14.7679V19.3349C14.7679 19.4443 14.8568 19.533 14.9664 19.533H15.9353C16.045 19.533 16.1339 19.4443 16.1339 19.3349V18.4761H18.8049C18.9146 18.4761 19.0035 18.3873 19.0035 18.2779V17.6173C19.0035 17.5078 18.9146 17.4191 18.8049 17.4191H16.1339V16.8906H17.6693ZM16.1339 13.2696H17.4363C18.2093 13.2696 18.6752 13.7503 18.6752 14.497C18.6752 15.254 18.2093 15.7449 17.4151 15.7449H16.1339V13.2696Z" fill="#E3010F"/>
<path d="M10.3484 15.4071C10.2395 15.5164 10.1776 15.6639 10.1758 15.8182C10.1757 15.8573 10.1798 15.8962 10.1881 15.9343C10.1953 15.9718 10.2067 16.0083 10.222 16.0433C10.2361 16.0795 10.2544 16.114 10.2765 16.1461C10.2973 16.178 10.3214 16.2076 10.3484 16.2345C10.3758 16.2619 10.4058 16.2867 10.4379 16.3084C10.4703 16.3295 10.5047 16.3474 10.5406 16.3619C10.5765 16.3768 10.6137 16.3885 10.6516 16.3968C10.6896 16.4039 10.7281 16.4073 10.7667 16.4071C10.9228 16.4066 11.0723 16.3445 11.183 16.2345C11.2103 16.2074 11.2351 16.1778 11.257 16.1461C11.2775 16.1131 11.2957 16.0788 11.3114 16.0433C11.325 16.0078 11.336 15.9714 11.3443 15.9343C11.3523 15.8962 11.356 15.8572 11.3556 15.8182C11.3548 15.702 11.3195 15.5887 11.2544 15.4925C11.1892 15.3963 11.0971 15.3215 10.9895 15.2775C10.8819 15.2336 10.7638 15.2224 10.6499 15.2455C10.536 15.2685 10.4315 15.3248 10.3495 15.4071H10.3484Z" fill="#E3010F"/>
<path d="M23.2544 16.1512C23.2765 16.1827 23.3013 16.2122 23.3284 16.2395C23.3898 16.3014 23.4641 16.3488 23.546 16.3784C23.628 16.4079 23.7155 16.4189 23.8022 16.4104C23.8889 16.4019 23.9726 16.3743 24.0472 16.3294C24.1219 16.2846 24.1857 16.2237 24.2339 16.1512C24.256 16.1191 24.2743 16.0846 24.2884 16.0484C24.3037 16.0134 24.315 15.9769 24.3223 15.9394C24.3304 15.902 24.3346 15.8637 24.3346 15.8254C24.3379 15.7459 24.3251 15.6666 24.297 15.5922C24.2689 15.5178 24.226 15.4498 24.1709 15.3924C24.1159 15.335 24.0498 15.2893 23.9766 15.2581C23.9035 15.2269 23.8247 15.2108 23.7452 15.2108C23.6657 15.2108 23.5869 15.2269 23.5138 15.2581C23.4406 15.2893 23.3745 15.335 23.3194 15.3924C23.2644 15.4498 23.2215 15.5178 23.1934 15.5922C23.1653 15.6666 23.1525 15.7459 23.1558 15.8254C23.156 15.8637 23.1598 15.9018 23.1671 15.9394C23.1753 15.9767 23.1866 16.0131 23.201 16.0484C23.216 16.084 23.2339 16.1184 23.2544 16.1512Z" fill="#E3010F"/>
</g>
<defs>
<clipPath id="clip0_280_59">
<rect width="44" height="27" fill="white"/>
</clipPath>
</defs>
</svg>
