<svg width="33" height="35" viewBox="0 0 33 35" fill="none" xmlns="http://www.w3.org/2000/svg">
<path d="M16.5 4.0625C24.46 4.0625 30.9375 10.54 30.9375 18.5C30.9375 26.46 24.46 32.9375 16.5 32.9375C8.54004 32.9375 2.0625 26.46 2.0625 18.5C2.0625 10.54 8.54004 4.0625 16.5 4.0625ZM16.5 2C7.38794 2 0 9.38794 0 18.5C0 27.6121 7.38794 35 16.5 35C25.6121 35 33 27.6121 33 18.5C33 9.38794 25.6121 2 16.5 2ZM25.6987 24.0168L25.606 23.7348C25.3885 23.0863 24.6714 22.4095 24.0108 22.2282L21.5717 21.5615C20.911 21.3823 19.9684 21.624 19.4831 22.1094L18.6008 22.9916C15.3943 22.1235 12.8786 19.6078 12.0125 16.4013L12.8947 15.519C13.3781 15.0356 13.6198 14.093 13.4406 13.4304L12.7758 10.9912C12.5966 10.3306 11.9158 9.61353 11.2672 9.396L10.9893 9.30331C10.3387 9.08578 9.41016 9.30531 8.92676 9.79077L7.60547 11.1121C7.36983 11.3457 7.21875 12.0164 7.21875 12.0185C7.17441 16.212 8.81803 20.2504 11.7829 23.2172C14.7397 26.174 18.764 27.8156 22.9433 27.7793C22.9655 27.7793 23.6564 27.6322 23.892 27.3965L25.2133 26.0752C25.6967 25.5938 25.9142 24.6653 25.6987 24.0168Z" fill="#E3010F"/>
</svg>
