<svg width="34" height="36" viewBox="0 0 34 36" fill="none" xmlns="http://www.w3.org/2000/svg">
<path d="M27.9932 25.0614C27.8548 25.0145 27.7085 24.9955 27.5627 25.0055C27.4169 25.0155 27.2745 25.0543 27.1438 25.1197C27.013 25.1851 26.8966 25.2757 26.8011 25.3863C26.7056 25.497 26.633 25.6255 26.5875 25.7644C26.5419 25.9032 26.5244 26.0498 26.5358 26.1955C26.5473 26.3412 26.5875 26.4832 26.6541 26.6132C26.7208 26.7433 26.8126 26.8589 26.9241 26.9533C27.0357 27.0477 27.1649 27.119 27.3042 27.1631C29.8342 27.9926 30.9666 28.983 30.9666 29.5954C30.9666 31.1366 25.2322 33.4662 16.5892 33.4662C7.94631 33.4662 2.2119 31.1366 2.2119 29.5954C2.2119 28.983 3.34431 27.9926 5.87427 27.1631C6.01359 27.119 6.14278 27.0477 6.25437 26.9533C6.36595 26.8589 6.45773 26.7433 6.52438 26.6132C6.59103 26.4832 6.63124 26.3412 6.64268 26.1955C6.65413 26.0498 6.63658 25.9032 6.59105 25.7644C6.54552 25.6255 6.47291 25.497 6.37743 25.3863C6.28195 25.2757 6.16548 25.1851 6.03476 25.1197C5.90404 25.0543 5.76166 25.0155 5.61585 25.0055C5.47004 24.9955 5.32369 25.0145 5.18526 25.0614C0.899667 26.4665 0 28.3026 0 29.5954C0 33.5882 8.34538 35.6781 16.5892 35.6781C24.8331 35.6781 33.1785 33.5882 33.1785 29.5954C33.1785 28.3026 32.2788 26.4665 27.9932 25.0614Z" fill="#E3010F"/>
<path d="M15.8986 31.0128C16.0947 31.1694 16.3383 31.2547 16.5893 31.2547C16.8403 31.2547 17.0838 31.1694 17.2799 31.0128C17.6844 30.6887 27.1746 22.9828 27.1746 13.0854C27.1746 10.2779 26.0594 7.58552 24.0742 5.60038C22.0891 3.61524 19.3967 2.5 16.5893 2.5C13.7819 2.5 11.0894 3.61524 9.10429 5.60038C7.11915 7.58552 6.00391 10.2779 6.00391 13.0854C6.00393 22.9828 15.4941 30.6888 15.8986 31.0128ZM12.7974 13.0854C12.7975 12.3354 13.0199 11.6023 13.4366 10.9788C13.8532 10.3552 14.4455 9.86924 15.1383 9.58228C15.8312 9.29531 16.5936 9.22024 17.3291 9.36657C18.0647 9.5129 18.7403 9.87405 19.2706 10.4044C19.8009 10.9347 20.162 11.6103 20.3083 12.3458C20.4546 13.0814 20.3795 13.8438 20.0925 14.5367C19.8055 15.2295 19.3195 15.8217 18.6959 16.2384C18.0723 16.655 17.3392 16.8774 16.5893 16.8774C15.5836 16.8773 14.6191 16.4778 13.908 15.7667C13.1969 15.0556 12.7974 14.0911 12.7974 13.0854V13.0854Z" fill="#E3010F"/>
</svg>
