<?xml version="1.0" encoding="utf-8"?>
<svg version="1.1" id="Слой_1" xmlns="http://www.w3.org/2000/svg" xmlns:xlink="http://www.w3.org/1999/xlink" x="0px" y="0px"
	 width="25px" height="14px" viewBox="0 0 25 14" style="enable-background:new 0 0 25 14;" xml:space="preserve">
<style type="text/css">
	.st0{fill:#E3010F;}
</style>
<path class="st0" d="M24.7,11.7c0.2,0.2,0.4,0.6,0.3,0.9c0,0.3-0.1,0.7-0.4,0.9c-0.2,0.2-0.6,0.4-0.9,0.4c-0.3,0-0.7-0.1-0.9-0.4
	L12.5,3.2L2.2,13.6c-0.1,0.1-0.3,0.2-0.4,0.3C1.7,14,1.5,14,1.3,14c-0.2,0-0.3,0-0.5-0.1c-0.2-0.1-0.3-0.2-0.4-0.3
	c-0.1-0.1-0.2-0.3-0.3-0.4C0,13,0,12.8,0,12.7c0-0.2,0-0.3,0.1-0.5c0.1-0.2,0.2-0.3,0.3-0.4L11.6,0.4C11.9,0.1,12.2,0,12.5,0
	c0.3,0,0.7,0.1,0.9,0.4L24.7,11.7z"/>
</svg>
