<?xml version="1.0" standalone="no"?>
<!DOCTYPE svg PUBLIC "-//W3C//DTD SVG 20010904//EN"
 "http://www.w3.org/TR/2001/REC-SVG-20010904/DTD/svg10.dtd">
<svg version="1.0" xmlns="http://www.w3.org/2000/svg"
 width="976.000000pt" height="976.000000pt" viewBox="0 0 976.000000 976.000000"
 preserveAspectRatio="xMidYMid meet">
<metadata>
Created by potrace 1.14, written by Peter Selinger 2001-2017
</metadata>
<g transform="translate(0.000000,976.000000) scale(0.100000,-0.100000)"
fill="#000000" stroke="none">
<path d="M0 4885 l0 -4315 2614 0 c1490 0 2617 4 2620 9 3 5 59 44 123 87 65
42 121 82 125 88 4 6 8 8 8 3 0 -4 31 15 69 43 38 27 73 50 79 50 6 0 12 4 14
8 2 4 145 102 318 217 173 116 317 212 320 215 3 3 30 21 60 40 30 19 57 37
60 40 3 3 30 21 60 40 30 19 60 38 65 43 31 25 1088 727 1095 727 5 0 10 4 12
9 2 4 104 75 228 157 124 82 230 154 237 159 7 6 19 16 28 23 8 7 15 10 15 7
0 -4 7 0 15 7 28 26 44 38 49 38 2 0 164 107 358 237 395 265 506 339 528 353
8 6 48 33 88 60 40 28 77 50 83 50 5 0 12 7 15 15 4 8 10 15 15 15 11 0 292
189 300 202 3 5 10 10 15 10 5 0 17 6 27 13 15 11 -187 13 -1112 12 -622 -1
-1131 1 -1131 5 0 4 106 153 235 330 130 178 268 368 307 423 40 55 77 105 83
112 28 33 35 43 35 47 0 8 123 171 132 174 4 2 8 8 8 13 0 9 101 151 141 198
11 13 25 33 31 45 6 11 14 23 18 26 3 3 25 32 48 65 23 33 49 69 57 80 17 22
98 132 217 295 42 58 78 112 80 119 2 11 -28 13 -162 11 -91 -1 -221 -3 -290
-4 -69 -1 -131 -5 -137 -9 -6 -4 -14 -3 -18 2 -3 5 -15 8 -28 5 -12 -2 -197
-6 -412 -9 -214 -3 -479 -8 -587 -10 l-197 -3 8 21 c5 12 9 24 9 27 0 3 6 19
12 35 7 17 13 37 15 45 2 8 12 36 24 63 11 26 21 49 21 52 1 8 29 90 101 295
17 50 22 64 23 70 2 9 87 244 96 265 19 45 82 231 83 243 0 6 4 12 9 12 4 0 7
3 6 8 -3 12 25 95 39 118 8 12 13 26 12 30 -1 5 1 16 4 24 9 20 88 242 91 255
2 6 8 23 14 38 7 16 12 34 12 42 0 8 5 17 10 20 6 3 10 12 10 20 0 8 5 26 12
42 6 15 12 33 14 38 4 19 115 330 124 350 14 29 40 109 36 112 -1 1 -567 4
-1257 7 -690 2 -1256 5 -1259 5 -3 1 -6 337 -6 749 l0 747 -2612 3 -2612 2 0
-4315z m4501 3578 c3 -18 4 -35 1 -38 -7 -7 -7 -68 1 -88 3 -9 2 -19 -3 -22
-6 -3 -6 -15 0 -30 5 -14 5 -27 0 -30 -5 -3 -5 -18 0 -34 4 -16 6 -32 2 -35
-7 -8 -7 -69 1 -89 3 -9 2 -19 -3 -22 -6 -3 -6 -15 0 -30 5 -14 5 -27 0 -30
-5 -3 -5 -18 0 -34 4 -16 6 -32 2 -35 -7 -8 -7 -69 1 -89 4 -10 2 -17 -3 -17
-6 0 -6 -9 0 -24 5 -13 6 -27 3 -30 -4 -3 -7 -23 -7 -44 l-1 -37 -299 -2
c-165 -1 -305 -4 -312 -7 -6 -2 -14 -2 -17 1 -9 8 -167 9 -167 0 0 -5 -5 -5
-12 -1 -14 9 -92 9 -107 0 -6 -4 -11 -4 -11 1 0 4 -243 8 -540 8 l-540 0 -24
-65 c-13 -36 -34 -94 -46 -130 -90 -264 -151 -438 -160 -452 -5 -10 -10 -23
-10 -30 0 -6 -14 -50 -32 -97 -17 -47 -31 -92 -31 -98 0 -7 -4 -13 -9 -13 -4
0 -7 -3 -6 -7 3 -11 -33 -116 -45 -130 -5 -7 -7 -13 -3 -13 3 0 -4 -24 -16
-52 -11 -29 -22 -60 -23 -68 -1 -8 -5 -22 -9 -30 -11 -27 -88 -245 -90 -255
-1 -5 -4 -14 -8 -20 -3 -5 -10 -26 -16 -45 -10 -34 -57 -170 -69 -200 -3 -8
-7 -19 -8 -25 -2 -5 -19 -55 -40 -110 -20 -55 -38 -111 -41 -124 -3 -13 -12
-37 -20 -52 -8 -16 -12 -29 -9 -29 3 0 -2 -11 -11 -25 -9 -14 -14 -25 -10 -25
3 0 -8 -37 -25 -82 -25 -67 -47 -132 -64 -188 -1 -3 -5 -12 -8 -20 -28 -66
-54 -149 -50 -154 4 -3 2 -6 -4 -6 -5 0 -10 -6 -10 -12 0 -7 -21 -71 -46 -143
-25 -71 -47 -137 -49 -145 -2 -8 -5 -17 -8 -20 -5 -5 -86 -234 -95 -270 -2 -8
-11 -33 -19 -55 -8 -22 -44 -123 -79 -225 -36 -102 -70 -197 -76 -212 -6 -16
-8 -28 -5 -28 4 0 2 -6 -3 -12 -8 -10 -40 -95 -48 -128 -1 -3 -5 -12 -8 -20
-19 -44 -45 -130 -39 -130 4 0 2 -4 -3 -8 -6 -4 -19 -34 -29 -67 -10 -33 -23
-65 -28 -72 -5 -7 -7 -17 -3 -23 3 -5 1 -10 -4 -10 -6 0 -10 -3 -10 -7 1 -5 0
-10 -1 -13 -1 -3 -3 -12 -5 -20 -3 -14 -84 -244 -98 -280 -8 -21 -88 -253 -91
-265 -2 -5 -6 -17 -9 -25 -15 -40 -42 -116 -43 -120 0 -3 -3 -12 -7 -20 -3 -8
-15 -44 -28 -80 -12 -36 -24 -70 -28 -77 -3 -7 -6 1301 -5 2905 1 1604 2 2917
3 2917 0 0 848 0 1883 0 l1882 0 7 -32z m-5 -1374 c1 -15 4 -31 8 -38 4 -6 3
-11 -3 -11 -6 0 -6 -11 -1 -30 5 -16 5 -32 0 -35 -5 -3 -5 -18 0 -34 4 -16 6
-32 2 -35 -7 -8 -7 -69 1 -89 3 -9 2 -19 -3 -22 -6 -3 -6 -15 0 -30 5 -14 5
-27 0 -30 -5 -3 -5 -18 0 -34 4 -16 6 -32 2 -35 -7 -8 -7 -69 1 -89 4 -10 2
-17 -3 -17 -6 0 -6 -9 0 -24 5 -13 6 -27 3 -30 -8 -8 -8 -68 0 -89 3 -9 2 -19
-3 -22 -6 -3 -6 -15 0 -30 5 -14 5 -27 0 -30 -5 -3 -5 -18 0 -34 4 -16 6 -32
2 -35 -7 -8 -7 -69 1 -89 3 -9 2 -19 -3 -22 -6 -3 -6 -15 0 -30 5 -14 5 -27 0
-30 -5 -3 -5 -18 0 -34 4 -16 6 -32 2 -35 -3 -4 -5 -23 -4 -44 3 -64 4 -107 2
-114 -4 -20 -3 -77 3 -91 3 -9 2 -19 -3 -22 -6 -3 -6 -15 0 -30 5 -14 5 -27 0
-30 -5 -3 -5 -18 0 -34 4 -16 6 -32 2 -35 -7 -8 -7 -69 1 -89 3 -9 2 -19 -3
-22 -6 -3 -6 -15 0 -29 5 -13 6 -27 2 -31 -4 -4 -7 -12 -7 -18 0 -15 31 -14
-479 -22 -441 -7 -436 -6 -461 -47 -9 -14 -170 -230 -210 -283 -14 -17 -77
-104 -143 -194 -9 -13 -22 -29 -27 -35 -6 -6 -21 -28 -35 -48 -14 -21 -29 -38
-33 -38 -5 0 -5 -4 -2 -10 3 -5 2 -10 -2 -10 -5 0 -40 -44 -78 -97 -38 -54
-72 -100 -75 -103 -10 -8 -130 -171 -130 -176 0 -2 -9 -14 -19 -26 -24 -29
-186 -246 -430 -578 -67 -91 -127 -172 -134 -180 -7 -8 -28 -37 -47 -65 -19
-27 -40 -55 -45 -61 -6 -6 -31 -39 -55 -74 -25 -34 -53 -71 -62 -81 -10 -11
-18 -22 -18 -25 0 -3 -10 -18 -22 -33 -13 -15 -32 -40 -43 -55 -11 -16 -26
-34 -33 -41 -6 -8 -12 -18 -12 -23 0 -6 -3 -12 -7 -14 -5 -1 -28 -30 -52 -63
-25 -33 -48 -61 -53 -63 -4 -2 -8 -8 -8 -14 0 -6 -10 -22 -22 -37 -13 -15 -31
-38 -41 -52 -45 -61 -337 -452 -342 -457 -3 -3 6 25 21 64 14 38 34 95 45 126
10 32 22 66 28 76 6 10 12 30 15 43 3 13 14 49 26 79 11 30 36 100 55 155 36
108 139 402 175 500 12 33 23 67 25 75 2 8 4 16 5 18 2 1 3 5 5 10 1 4 5 14 8
22 4 8 13 38 22 65 9 28 20 59 25 70 8 17 96 273 104 300 2 6 6 17 9 25 15 33
129 367 137 396 4 18 10 36 14 42 16 26 171 482 166 491 -1 2 2 7 7 10 4 3 18
35 29 71 12 36 52 151 89 255 37 105 68 195 69 200 2 6 6 17 9 25 3 8 18 51
33 95 14 44 31 86 36 93 6 6 8 12 5 12 -3 0 1 16 9 35 8 19 11 35 8 35 -4 0
-2 6 3 13 6 6 26 59 46 117 20 58 59 170 87 250 28 80 67 192 87 250 20 58 40
111 46 118 5 6 6 12 2 12 -4 0 -2 7 5 15 7 8 10 15 6 15 -3 0 1 17 9 38 9 20
29 75 45 122 68 200 93 273 105 300 2 3 6 14 10 26 l6 21 742 -2 742 -1 1 -25z
m1610 20 c384 -1 702 -3 706 -5 4 -3 -5 -35 -18 -72 -14 -37 -28 -76 -31 -87
-2 -11 -7 -27 -11 -35 -3 -8 -6 -17 -7 -20 -1 -3 -5 -12 -8 -20 -4 -8 -23 -62
-42 -120 -20 -58 -40 -114 -45 -125 -4 -11 -13 -33 -18 -50 -38 -110 -85 -243
-92 -260 -5 -11 -20 -56 -35 -100 -15 -44 -33 -94 -41 -111 -7 -17 -15 -40
-17 -50 -1 -11 -5 -23 -8 -29 -4 -5 -12 -28 -19 -50 -7 -22 -17 -46 -23 -52
-5 -7 -7 -13 -3 -13 3 0 1 -12 -5 -27 -30 -77 -101 -280 -102 -290 0 -7 -4
-13 -9 -13 -4 0 -7 -3 -6 -7 4 -15 -34 -114 -46 -119 -6 -2 -134 -6 -284 -8
-150 -2 -275 -6 -278 -9 -4 -3 -16 -2 -28 3 -12 4 -29 4 -38 -1 -11 -6 -19 -5
-23 1 -3 5 -14 7 -23 3 -9 -5 -87 -8 -172 -8 l-155 0 0 835 -1 835 86 5 c47 3
88 4 91 3 3 -1 321 -3 705 -4z m1486 -2031 c68 4 179 4 183 0 3 -3 -287 -405
-329 -454 -14 -18 -26 -35 -26 -39 0 -3 -6 -12 -12 -20 -21 -22 -48 -55 -48
-59 0 -4 -119 -167 -145 -199 -8 -9 -15 -19 -15 -22 0 -3 -7 -13 -14 -22 -8
-10 -44 -58 -80 -108 -36 -49 -73 -99 -81 -110 -20 -25 -115 -156 -135 -186
-8 -12 -32 -44 -52 -70 -21 -27 -38 -53 -38 -59 0 -5 -3 -10 -7 -10 -5 0 -35
-39 -68 -85 -52 -73 -64 -85 -90 -86 -28 -1 -315 -1 -342 1 -10 0 -10 9 1 38
8 20 31 84 51 142 20 58 41 114 45 125 5 11 28 74 51 140 116 336 376 1066
381 1071 3 2 161 5 351 7 191 3 351 8 355 11 3 4 8 4 9 -1 2 -4 27 -7 55 -5z
m-1502 -29 c0 -4 -12 -41 -26 -81 -14 -40 -39 -111 -55 -158 -17 -47 -34 -94
-39 -105 -5 -11 -27 -73 -49 -138 -22 -64 -43 -122 -46 -127 -3 -6 -8 -18 -10
-27 -4 -19 -61 -185 -75 -218 -21 -50 -90 -251 -90 -262 0 -7 -4 -13 -8 -13
-4 0 -9 -11 -10 -23 -1 -13 -8 -37 -17 -53 -8 -16 -15 -35 -15 -42 0 -8 -6
-28 -14 -45 -8 -18 -26 -68 -42 -112 -15 -44 -30 -83 -34 -88 -4 -4 -80 -8
-171 -9 l-164 -1 0 749 0 748 245 4 c134 2 245 4 246 5 7 6 374 3 374 -4z
m-1586 -35 c3 -8 2 -14 -2 -14 -8 0 -7 -94 2 -109 4 -5 2 -12 -3 -16 -7 -3 -7
-15 -1 -30 5 -14 5 -27 0 -30 -5 -3 -5 -18 0 -34 4 -16 6 -32 2 -35 -3 -4 -5
-25 -4 -49 1 -50 3 -698 1 -712 -2 -19 -1 -80 1 -90 1 -5 1 -14 0 -20 -4 -23
-2 -94 4 -103 3 -6 2 -13 -3 -17 -7 -3 -7 -15 -1 -30 5 -14 5 -27 0 -30 -5 -3
-5 -18 0 -34 4 -16 6 -32 2 -35 -7 -8 -7 -69 1 -89 3 -9 2 -19 -3 -22 -5 -3
-6 -12 -3 -21 7 -18 -17 -41 -69 -69 -21 -11 -38 -23 -38 -27 0 -5 -4 -8 -10
-8 -8 0 -50 -26 -240 -150 -8 -6 -154 -101 -325 -211 -170 -110 -335 -217
-365 -237 -30 -20 -66 -43 -80 -50 -14 -7 -32 -19 -40 -26 -8 -6 -27 -18 -42
-26 -16 -7 -28 -17 -28 -22 0 -4 -7 -8 -15 -8 -8 0 -15 -4 -15 -10 0 -5 -5
-10 -12 -10 -6 0 -26 -11 -44 -25 -18 -14 -35 -25 -37 -25 -3 0 -32 -18 -65
-40 -33 -22 -65 -40 -71 -40 -6 0 -11 -5 -11 -10 0 -6 -8 -14 -17 -17 -10 -4
-39 -22 -65 -40 -26 -18 -50 -33 -53 -33 -3 0 -28 -16 -55 -35 -27 -19 -52
-35 -55 -35 -3 0 -11 -5 -18 -10 -7 -6 -91 -61 -187 -123 -96 -61 -176 -115
-178 -119 -2 -4 -8 -8 -13 -8 -5 0 -53 -28 -106 -63 -206 -134 -410 -264 -448
-287 -22 -14 -44 -28 -50 -33 -11 -9 -79 -53 -180 -116 -38 -24 -72 -47 -75
-50 -3 -3 -22 -15 -42 -26 -21 -11 -38 -23 -38 -27 0 -5 -7 -8 -15 -8 -8 0
-15 -5 -15 -12 0 -6 -3 -8 -7 -5 -3 4 22 43 55 87 34 45 62 85 62 90 0 4 4 10
8 12 7 3 194 249 232 305 14 21 304 415 322 438 13 16 61 81 83 111 11 15 25
32 30 38 6 6 19 25 29 41 10 17 25 37 32 45 35 39 64 79 64 89 0 6 3 11 8 11
4 0 18 17 32 38 14 20 29 42 35 48 5 6 17 22 25 34 8 12 21 29 28 36 7 8 10
14 6 14 -4 0 -1 6 8 13 9 6 42 48 74 92 32 44 62 82 66 83 4 2 8 9 8 15 0 7
10 23 23 37 12 14 33 42 47 62 14 21 28 38 33 38 4 0 7 7 7 15 0 8 3 15 8 15
4 0 18 17 32 37 14 21 52 74 85 118 33 44 69 93 80 108 11 16 28 38 37 50 9
12 42 56 72 97 31 41 62 84 70 95 8 11 40 54 70 95 30 41 62 84 70 95 23 29
348 470 366 495 8 12 23 31 32 43 62 79 208 280 208 287 0 5 4 10 8 12 5 2 47
55 94 119 l86 116 213 2 c118 1 215 3 216 5 8 8 62 -8 67 -20z m966 -1718 c0
-5 -23 -73 -51 -150 -28 -78 -67 -186 -86 -241 -19 -55 -39 -109 -43 -120 -14
-31 -24 -69 -22 -77 1 -5 -2 -8 -8 -8 -6 0 -9 -3 -8 -7 3 -13 -13 -72 -21 -77
-5 -4 -8 662 -2 685 2 10 241 5 241 -5z m998 -9 c-10 -19 -145 -208 -166 -233
-5 -6 -27 -35 -48 -65 -48 -66 -100 -138 -120 -162 -8 -9 -14 -19 -14 -22 0
-4 -8 -15 -52 -67 -10 -12 -18 -24 -18 -28 0 -4 -13 -23 -30 -41 -16 -19 -30
-40 -30 -46 0 -7 -4 -13 -9 -13 -5 0 -18 -15 -30 -32 -26 -42 -27 -23 -1 36
11 26 20 48 20 51 1 9 41 124 95 275 13 36 38 106 55 155 61 174 72 200 81
206 6 3 70 6 144 6 130 -1 134 -1 123 -20z m2125 6 c-3 -7 -9 -13 -14 -13 -10
0 -189 -118 -199 -131 -3 -3 -9 -8 -15 -10 -12 -5 -243 -157 -259 -171 -6 -4
-54 -36 -106 -70 -52 -34 -96 -65 -98 -70 -2 -4 -10 -8 -18 -8 -8 0 -14 -4
-14 -10 0 -5 -5 -10 -11 -10 -12 0 -103 -60 -107 -72 -2 -4 -7 -8 -12 -8 -4 0
-103 -63 -219 -140 -116 -77 -215 -140 -220 -140 -5 0 -11 -3 -13 -7 -5 -12
-66 -53 -78 -53 -5 0 -10 -4 -10 -8 0 -5 -12 -15 -27 -23 -16 -8 -32 -18 -38
-22 -5 -5 -71 -49 -145 -98 -74 -48 -142 -93 -150 -99 -8 -5 -221 -147 -473
-315 -307 -205 -452 -296 -440 -277 10 15 20 29 23 32 3 3 23 30 45 60 21 30
63 88 92 128 168 230 195 267 313 428 35 49 68 91 72 92 4 2 8 8 8 13 0 6 28
47 62 92 35 45 63 86 63 90 0 5 8 14 18 21 9 7 17 16 17 19 0 4 7 15 15 24 8
10 48 65 90 123 99 139 108 151 120 164 6 6 30 40 54 76 24 36 49 70 55 75 6
6 25 30 41 55 17 25 35 50 40 56 6 6 17 22 25 34 8 12 43 59 76 104 l62 82
690 0 c566 0 689 -2 685 -13z m-4093 -322 c-4 -16 -4 -34 0 -42 5 -7 6 -17 3
-23 -8 -12 -8 -68 0 -89 3 -9 2 -19 -3 -22 -6 -3 -6 -15 0 -30 5 -13 6 -26 2
-29 -4 -2 -5 -153 -2 -336 3 -182 3 -334 1 -336 -5 -4 -5 -70 -1 -89 1 -5 1
-14 0 -20 -4 -23 -2 -94 4 -103 3 -6 2 -13 -3 -17 -7 -3 -7 -15 -1 -30 5 -14
5 -27 0 -30 -5 -3 -5 -18 0 -34 4 -16 6 -32 2 -35 -7 -8 -7 -69 1 -89 3 -9 2
-19 -3 -22 -6 -3 -6 -15 0 -30 5 -14 5 -27 0 -30 -5 -3 -5 -18 0 -34 4 -16 6
-32 2 -35 -7 -8 -7 -69 1 -89 3 -9 2 -19 -3 -22 -6 -3 -6 -15 0 -30 7 -17 5
-27 -6 -36 -12 -10 -290 -13 -1324 -13 -720 -1 -1319 2 -1332 6 -14 4 -17 6
-6 7 9 1 18 5 20 10 2 6 149 103 236 156 9 6 70 45 135 88 65 42 122 77 127
77 4 0 10 3 12 8 3 6 80 60 103 72 28 14 101 64 107 74 4 6 8 8 8 4 0 -5 77
42 150 92 42 29 244 160 247 160 4 0 136 88 150 100 7 5 14 10 17 10 8 0 100
63 107 73 3 5 9 8 12 8 11 -1 67 34 67 42 0 4 5 7 10 7 8 0 159 95 195 123 5
4 33 22 60 39 28 17 90 58 138 90 49 32 92 58 96 58 4 0 16 8 27 18 11 9 29
22 40 29 55 34 151 95 254 161 63 41 153 99 200 129 47 30 96 63 110 73 34 24
50 16 40 -19z"/>
</g>
</svg>
